<?xml version="1.0" encoding="utf-8"?>
<!-- Generated by IcoMoon.io -->
<!DOCTYPE svg PUBLIC "-//W3C//DTD SVG 1.1//EN" "http://www.w3.org/Graphics/SVG/1.1/DTD/svg11.dtd">
<svg version="1.1" xmlns="http://www.w3.org/2000/svg" xmlns:xlink="http://www.w3.org/1999/xlink" width="36" height="36" viewBox="0 0 36 36">
<g>
</g>
	<path d="M17.903 1.699c-8.949 0-16.204 7.254-16.204 16.203s7.254 16.203 16.204 16.203c8.948 0 16.203-7.254 16.203-16.203 0-8.949-7.254-16.203-16.203-16.203zM21.739 24.348c0 0.698-0.566 1.263-1.263 1.263h-7.676c-0.697 0-1.263-0.565-1.263-1.263v-10.179c0-0.697 0.566-1.263 1.263-1.263h7.676c0.697 0 1.263 0.566 1.263 1.263v10.179zM24.268 21.637c0 0.697-0.566 1.263-1.263 1.263h-0.123v-9.925c0-0.697-0.566-1.263-1.263-1.263h-7.553v-0.255c0-0.697 0.566-1.263 1.263-1.263h7.676c0.697 0 1.263 0.566 1.263 1.263v10.18z" fill="#000000" />
</svg>
